<svg xmlns="http://www.w3.org/2000/svg" width="520" height="360" viewBox="0 0 520 360"><rect x="0" y="0" width="520" height="360" fill="white"/><line x1="62" y1="314" x2="506" y2="314" stroke="#ddd" stroke-width="0.6"/><line x1="62" y1="262.32806061272015" x2="506" y2="262.32806061272015" stroke="#ddd" stroke-width="0.6"/><line x1="62" y1="210.65612122544036" x2="506" y2="210.65612122544036" stroke="#ddd" stroke-width="0.6"/><line x1="62" y1="158.98418183816054" x2="506" y2="158.98418183816054" stroke="#ddd" stroke-width="0.6"/><line x1="62" y1="107.3122424508807" x2="506" y2="107.3122424508807" stroke="#ddd" stroke-width="0.6"/><line x1="62" y1="55.64030306360089" x2="506" y2="55.64030306360089" stroke="#ddd" stroke-width="0.6"/><rect x="62" y="14" width="444" height="300" fill="none" stroke="black" stroke-width="1"/><line x1="113.23076923076923" y1="314" x2="113.23076923076923" y2="318" stroke="black"/><text x="113.23076923076923" y="332" text-anchor="middle" font-size="12" font-family="Georgia,'Times New Roman',serif">50</text><line x1="198.6153846153846" y1="314" x2="198.6153846153846" y2="318" stroke="black"/><text x="198.6153846153846" y="332" text-anchor="middle" font-size="12" font-family="Georgia,'Times New Roman',serif">100</text><line x1="284" y1="314" x2="284" y2="318" stroke="black"/><text x="284" y="332" text-anchor="middle" font-size="12" font-family="Georgia,'Times New Roman',serif">150</text><line x1="369.38461538461536" y1="314" x2="369.38461538461536" y2="318" stroke="black"/><text x="369.38461538461536" y="332" text-anchor="middle" font-size="12" font-family="Georgia,'Times New Roman',serif">200</text><line x1="454.7692307692308" y1="314" x2="454.7692307692308" y2="318" stroke="black"/><text x="454.7692307692308" y="332" text-anchor="middle" font-size="12" font-family="Georgia,'Times New Roman',serif">250</text><line x1="58" y1="314" x2="62" y2="314" stroke="black"/><text x="55" y="318" text-anchor="end" font-size="12" font-family="Georgia,'Times New Roman',serif">0</text><line x1="58" y1="262.32806061272015" x2="62" y2="262.32806061272015" stroke="black"/><text x="55" y="266.32806061272015" text-anchor="end" font-size="12" font-family="Georgia,'Times New Roman',serif">1</text><line x1="58" y1="210.65612122544036" x2="62" y2="210.65612122544036" stroke="black"/><text x="55" y="214.65612122544036" text-anchor="end" font-size="12" font-family="Georgia,'Times New Roman',serif">2</text><line x1="58" y1="158.98418183816054" x2="62" y2="158.98418183816054" stroke="black"/><text x="55" y="162.98418183816054" text-anchor="end" font-size="12" font-family="Georgia,'Times New Roman',serif">3</text><line x1="58" y1="107.3122424508807" x2="62" y2="107.3122424508807" stroke="black"/><text x="55" y="111.3122424508807" text-anchor="end" font-size="12" font-family="Georgia,'Times New Roman',serif">4</text><line x1="58" y1="55.64030306360089" x2="62" y2="55.64030306360089" stroke="black"/><text x="55" y="59.64030306360089" text-anchor="end" font-size="12" font-family="Georgia,'Times New Roman',serif">5</text><polyline fill="none" stroke="black" stroke-width="2" points="96.2,99.6 130.3,172.8 164.5,175.5 198.6,181.6 232.8,190.8 266.9,184.3 301.1,206.8 335.2,200.6 369.4,204.4 403.5,211.5 437.7,217.1"/><circle cx="96.2" cy="99.6" r="3" fill="black"/><circle cx="130.3" cy="172.8" r="3" fill="black"/><circle cx="164.5" cy="175.5" r="3" fill="black"/><circle cx="198.6" cy="181.6" r="3" fill="black"/><circle cx="232.8" cy="190.8" r="3" fill="black"/><circle cx="266.9" cy="184.3" r="3" fill="black"/><circle cx="301.1" cy="206.8" r="3" fill="black"/><circle cx="335.2" cy="200.6" r="3" fill="black"/><circle cx="369.4" cy="204.4" r="3" fill="black"/><circle cx="403.5" cy="211.5" r="3" fill="black"/><circle cx="437.7" cy="217.1" r="3" fill="black"/><polyline fill="none" stroke="black" stroke-width="1.3" stroke-dasharray="7 4" points="96.2,125.2 130.3,168.7 164.5,177.0 198.6,194.9 232.8,207.0 266.9,197.8 301.1,210.4 335.2,210.4 369.4,215.6 403.5,214.7"/><circle cx="96.2" cy="125.2" r="3" fill="black"/><circle cx="130.3" cy="168.7" r="3" fill="black"/><circle cx="164.5" cy="177.0" r="3" fill="black"/><circle cx="198.6" cy="194.9" r="3" fill="black"/><circle cx="232.8" cy="207.0" r="3" fill="black"/><circle cx="266.9" cy="197.8" r="3" fill="black"/><circle cx="301.1" cy="210.4" r="3" fill="black"/><circle cx="335.2" cy="210.4" r="3" fill="black"/><circle cx="369.4" cy="215.6" r="3" fill="black"/><circle cx="403.5" cy="214.7" r="3" fill="black"/><polyline fill="none" stroke="#888" stroke-width="1.3" stroke-dasharray="2 3" points="62.0,31.0 96.2,113.9 130.3,150.6 164.5,172.5 198.6,187.4 232.8,198.5 266.9,207.0 301.1,213.9 335.2,219.7 369.4,224.5 403.5,228.7 437.7,232.3 471.8,235.5 506.0,238.4"/><line x1="356" y1="28" x2="382" y2="28" stroke="black" stroke-width="2"/><text x="388" y="32" font-size="12" font-family="Georgia,'Times New Roman',serif">kF = 1 (dragging)</text><line x1="356" y1="46" x2="382" y2="46" stroke="black" stroke-width="1.3" stroke-dasharray="7 4"/><text x="388" y="50" font-size="12" font-family="Georgia,'Times New Roman',serif">kF = 0 (Newtonian control)</text><line x1="356" y1="64" x2="382" y2="64" stroke="#888" stroke-width="1.3" stroke-dasharray="2 3"/><text x="388" y="68" font-size="12" font-family="Georgia,'Times New Roman',serif">Keplerian sqrt(GM/r)</text><text x="284" y="350" text-anchor="middle" font-size="14" font-family="Georgia,'Times New Roman',serif">radius r</text><text x="16" y="164" text-anchor="middle" font-size="14" font-family="Georgia,'Times New Roman',serif" transform="rotate(-90 16 164)">mean tangential velocity v_phi</text></svg>