<svg xmlns="http://www.w3.org/2000/svg" width="520" height="340" viewBox="0 0 520 340"><rect width="520" height="340" fill="white"/><defs><pattern id="hat" width="5" height="5" patternTransform="rotate(45)" patternUnits="userSpaceOnUse"><line x1="0" y1="0" x2="0" y2="5" stroke="#555" stroke-width="1.4"/></pattern></defs><line x1="62" y1="282" x2="506" y2="282" stroke="#ddd" stroke-width="0.6"/><line x1="58" y1="282" x2="62" y2="282" stroke="black"/><text x="55" y="286" text-anchor="end" font-size="12" font-family="Georgia,'Times New Roman',serif">0</text><line x1="62" y1="233.99999999999997" x2="506" y2="233.99999999999997" stroke="#ddd" stroke-width="0.6"/><line x1="58" y1="233.99999999999997" x2="62" y2="233.99999999999997" stroke="black"/><text x="55" y="237.99999999999997" text-anchor="end" font-size="12" font-family="Georgia,'Times New Roman',serif">0.2</text><line x1="62" y1="186" x2="506" y2="186" stroke="#ddd" stroke-width="0.6"/><line x1="58" y1="186" x2="62" y2="186" stroke="black"/><text x="55" y="190" text-anchor="end" font-size="12" font-family="Georgia,'Times New Roman',serif">0.4</text><line x1="62" y1="138" x2="506" y2="138" stroke="#ddd" stroke-width="0.6"/><line x1="58" y1="138" x2="62" y2="138" stroke="black"/><text x="55" y="142" text-anchor="end" font-size="12" font-family="Georgia,'Times New Roman',serif">0.6</text><line x1="62" y1="90" x2="506" y2="90" stroke="#ddd" stroke-width="0.6"/><line x1="58" y1="90" x2="62" y2="90" stroke="black"/><text x="55" y="94" text-anchor="end" font-size="12" font-family="Georgia,'Times New Roman',serif">0.8</text><line x1="62" y1="42.00000000000001" x2="506" y2="42.00000000000001" stroke="#ddd" stroke-width="0.6"/><line x1="58" y1="42.00000000000001" x2="62" y2="42.00000000000001" stroke="black"/><text x="55" y="46.00000000000001" text-anchor="end" font-size="12" font-family="Georgia,'Times New Roman',serif">1</text><rect x="62" y="18" width="444" height="264" fill="none" stroke="black" stroke-width="1"/><rect x="73.1" y="42.00236034393329" width="22.9" height="239.99763965606672" fill="#444" stroke="black" stroke-width="0.8"/><text x="84.55" y="37.00236034393329" text-anchor="middle" font-size="11" font-family="Georgia,'Times New Roman',serif">1.000</text><rect x="99" y="42.00000000000001" width="22.9" height="240" fill="url(#hat)" stroke="black" stroke-width="0.8"/><text x="110.45" y="37.00000000000001" text-anchor="middle" font-size="11" font-family="Georgia,'Times New Roman',serif"></text><text x="99" y="298" text-anchor="middle" font-size="12" font-family="Georgia,'Times New Roman',serif">v=0.0c</text><rect x="147.1" y="53.04293346405046" width="22.9" height="228.95706653594954" fill="#444" stroke="black" stroke-width="0.8"/><text x="158.54999999999998" y="48.04293346405046" text-anchor="middle" font-size="11" font-family="Georgia,'Times New Roman',serif">0.954</text><rect x="173" y="53.05459165993306" width="22.9" height="228.94540834006693" fill="url(#hat)" stroke="black" stroke-width="0.8"/><text x="184.45" y="48.05459165993306" text-anchor="middle" font-size="11" font-family="Georgia,'Times New Roman',serif"></text><text x="173" y="298" text-anchor="middle" font-size="12" font-family="Georgia,'Times New Roman',serif">v=0.3c</text><rect x="221.1" y="89.98247337341323" width="22.9" height="192.01752662658677" fill="#444" stroke="black" stroke-width="0.8"/><text x="232.54999999999998" y="84.98247337341323" text-anchor="middle" font-size="11" font-family="Georgia,'Times New Roman',serif">0.800</text><rect x="247" y="90" width="22.9" height="192" fill="url(#hat)" stroke="black" stroke-width="0.8"/><text x="258.45" y="85" text-anchor="middle" font-size="11" font-family="Georgia,'Times New Roman',serif"></text><text x="247" y="298" text-anchor="middle" font-size="12" font-family="Georgia,'Times New Roman',serif">v=0.6c</text><rect x="295.1" y="74.89392471313491" width="22.9" height="207.1060752868651" fill="#444" stroke="black" stroke-width="0.8"/><text x="306.55" y="69.89392471313491" text-anchor="middle" font-size="11" font-family="Georgia,'Times New Roman',serif">0.863</text><rect x="321" y="74.89532184690877" width="22.9" height="207.10467815309124" fill="url(#hat)" stroke="black" stroke-width="0.8"/><text x="332.45" y="69.89532184690877" text-anchor="middle" font-size="11" font-family="Georgia,'Times New Roman',serif"></text><text x="321" y="298" text-anchor="middle" font-size="12" font-family="Georgia,'Times New Roman',serif">orbit</text><text x="321" y="311" text-anchor="middle" font-size="12" font-family="Georgia,'Times New Roman',serif">(grav+kin)</text><rect x="369.1" y="49.87459373474138" width="22.9" height="232.12540626525862" fill="#444" stroke="black" stroke-width="0.8"/><text x="380.55" y="44.87459373474138" text-anchor="middle" font-size="11" font-family="Georgia,'Times New Roman',serif">0.967</text><rect x="395" y="49.87780784382286" width="22.9" height="232.12219215617714" fill="url(#hat)" stroke="black" stroke-width="0.8"/><text x="406.45" y="44.87780784382286" text-anchor="middle" font-size="11" font-family="Georgia,'Times New Roman',serif"></text><text x="395" y="298" text-anchor="middle" font-size="12" font-family="Georgia,'Times New Roman',serif">twin A</text><text x="395" y="311" text-anchor="middle" font-size="12" font-family="Georgia,'Times New Roman',serif">(rest)</text><rect x="443.1" y="85.8196706771852" width="22.9" height="196.1803293228148" fill="#444" stroke="black" stroke-width="0.8"/><text x="454.55" y="80.8196706771852" text-anchor="middle" font-size="11" font-family="Georgia,'Times New Roman',serif">0.817</text><rect x="469" y="85.8197099903929" width="22.9" height="196.18029000960712" fill="url(#hat)" stroke="black" stroke-width="0.8"/><text x="480.45" y="80.8197099903929" text-anchor="middle" font-size="11" font-family="Georgia,'Times New Roman',serif"></text><text x="469" y="298" text-anchor="middle" font-size="12" font-family="Georgia,'Times New Roman',serif">twin B</text><text x="469" y="311" text-anchor="middle" font-size="12" font-family="Georgia,'Times New Roman',serif">(v=0.5c)</text><rect x="72" y="24" width="14" height="10" fill="#444" stroke="black" stroke-width="0.8"/><text x="90" y="33" font-size="12" font-family="Georgia,'Times New Roman',serif">measured</text><rect x="202" y="24" width="14" height="10" fill="url(#hat)" stroke="black" stroke-width="0.8"/><text x="220" y="33" font-size="12" font-family="Georgia,'Times New Roman',serif">analytic</text><text x="16" y="150" text-anchor="middle" font-size="14" font-family="Georgia,'Times New Roman',serif" transform="rotate(-90 16 150)">clock rate tau/t</text></svg>