<svg xmlns="http://www.w3.org/2000/svg" width="520" height="608" viewBox="0 0 520 608"><rect width="520" height="608" fill="white"/><g transform="translate(0,0)"><rect x="0" y="0" width="520" height="300" fill="white"/><line x1="62" y1="254" x2="506" y2="254" stroke="#ddd" stroke-width="0.6"/><line x1="62" y1="201.93477163542997" x2="506" y2="201.93477163542997" stroke="#ddd" stroke-width="0.6"/><line x1="62" y1="149.8695432708599" x2="506" y2="149.8695432708599" stroke="#ddd" stroke-width="0.6"/><line x1="62" y1="97.80431490628986" x2="506" y2="97.80431490628986" stroke="#ddd" stroke-width="0.6"/><line x1="62" y1="45.73908654171983" x2="506" y2="45.73908654171983" stroke="#ddd" stroke-width="0.6"/><rect x="62" y="14" width="444" height="240" fill="none" stroke="black" stroke-width="1"/><line x1="149.22924528301888" y1="254" x2="149.22924528301888" y2="258" stroke="black"/><text x="149.22924528301888" y="272" text-anchor="middle" font-size="12" font-family="Georgia,'Times New Roman',serif">50</text><line x1="236.49339622641511" y1="254" x2="236.49339622641511" y2="258" stroke="black"/><text x="236.49339622641511" y="272" text-anchor="middle" font-size="12" font-family="Georgia,'Times New Roman',serif">100</text><line x1="323.75754716981135" y1="254" x2="323.75754716981135" y2="258" stroke="black"/><text x="323.75754716981135" y="272" text-anchor="middle" font-size="12" font-family="Georgia,'Times New Roman',serif">150</text><line x1="411.02169811320755" y1="254" x2="411.02169811320755" y2="258" stroke="black"/><text x="411.02169811320755" y="272" text-anchor="middle" font-size="12" font-family="Georgia,'Times New Roman',serif">200</text><line x1="498.2858490566038" y1="254" x2="498.2858490566038" y2="258" stroke="black"/><text x="498.2858490566038" y="272" text-anchor="middle" font-size="12" font-family="Georgia,'Times New Roman',serif">250</text><line x1="58" y1="254" x2="62" y2="254" stroke="black"/><text x="55" y="258" text-anchor="end" font-size="12" font-family="Georgia,'Times New Roman',serif">0</text><line x1="58" y1="201.93477163542997" x2="62" y2="201.93477163542997" stroke="black"/><text x="55" y="205.93477163542997" text-anchor="end" font-size="12" font-family="Georgia,'Times New Roman',serif">1</text><line x1="58" y1="149.8695432708599" x2="62" y2="149.8695432708599" stroke="black"/><text x="55" y="153.8695432708599" text-anchor="end" font-size="12" font-family="Georgia,'Times New Roman',serif">2</text><line x1="58" y1="97.80431490628986" x2="62" y2="97.80431490628986" stroke="black"/><text x="55" y="101.80431490628986" text-anchor="end" font-size="12" font-family="Georgia,'Times New Roman',serif">3</text><line x1="58" y1="45.73908654171983" x2="62" y2="45.73908654171983" stroke="black"/><text x="55" y="49.73908654171983" text-anchor="end" font-size="12" font-family="Georgia,'Times New Roman',serif">4</text><polyline fill="none" stroke="black" stroke-width="2" points="62.0,27.6 64.8,41.3 67.6,44.8 70.4,46.3 73.2,47.7 76.0,48.0 78.8,51.2 81.5,52.2 84.3,54.0 87.1,53.8 89.9,61.7 92.7,63.6 95.5,64.8 98.3,65.9 101.1,67.1 103.9,72.6 106.7,75.4 109.5,76.4 112.3,83.9 115.1,88.1 117.8,89.1 120.6,93.0 123.4,93.9 126.2,94.2 129.0,95.0 131.8,98.6 134.6,101.0 137.4,103.2 140.2,106.6 143.0,110.1 145.8,111.1 148.6,112.0 151.4,112.8 154.2,117.8 156.9,118.8 159.7,119.7 162.5,124.0 165.3,124.5 168.1,125.5 170.9,127.1 173.7,127.9 176.5,131.7 179.3,132.5 182.1,133.5 184.9,134.2 187.7,134.9 190.5,134.4 193.2,135.1 196.0,135.7 198.8,136.6 201.6,137.2 204.4,138.3 207.2,139.5 210.0,142.2 212.8,143.0 215.6,143.7 218.4,144.4 221.2,149.4 224.0,150.2 226.8,150.9 229.5,150.5 232.3,151.2 235.1,151.8 237.9,151.6 240.7,152.2 243.5,151.9 246.3,152.5 249.1,154.5 251.9,157.6 254.7,160.3 257.5,160.8 260.3,161.4 263.1,161.9 265.8,161.8 268.6,162.3 271.4,164.4 274.2,164.9 277.0,167.8 279.8,167.5 282.6,168.8 285.4,172.5 288.2,174.2 291.0,175.0 293.8,177.0 296.6,177.4 299.4,177.8 302.2,179.1 304.9,179.5 307.7,179.8 310.5,180.2 313.3,180.6 316.1,181.6 318.9,181.9 321.7,182.5 324.5,185.8 327.3,186.1 330.1,186.5 332.9,187.9 335.7,191.8 338.5,192.7 341.2,193.0 344.0,197.3 346.8,197.7 349.6,198.0 352.4,198.1 355.2,198.5 358.0,199.4 360.8,199.7 363.6,200.1 366.4,200.4 369.2,200.9 372.0,201.6 374.8,201.9 377.5,202.4 380.3,202.7 383.1,203.4 385.9,203.2 388.7,203.5 391.5,203.8 394.3,204.3 397.1,204.6 399.9,204.8 402.7,205.7 405.5,206.7 408.3,206.9 411.1,206.6 413.8,206.8 416.6,207.1 419.4,206.8 422.2,206.9 425.0,209.3 427.8,209.5 430.6,210.0 433.4,210.2 436.2,210.5 439.0,213.0 441.8,213.2 444.6,213.5 447.4,213.7 450.2,213.9 452.9,214.0 455.7,214.5 458.5,214.7 461.3,215.1 464.1,215.7 466.9,215.9 469.7,216.4 472.5,217.5 475.3,218.7 478.1,218.9 480.9,219.4 483.7,219.2 486.5,219.4 489.2,221.6 492.0,222.2 494.8,222.4 497.6,222.4 500.4,222.1 503.2,222.3 506.0,223.1"/><polyline fill="none" stroke="black" stroke-width="1.3" stroke-dasharray="7 4" points="62.0,253.6 64.8,253.5 67.6,253.1 70.4,253.1 73.2,253.1 76.0,250.7 78.8,250.7 81.5,249.4 84.3,249.4 87.1,247.6 89.9,247.6 92.7,244.2 95.5,244.4 98.3,244.5 101.1,243.1 103.9,243.3 106.7,239.3 109.5,239.6 112.3,239.8 115.1,240.1 117.8,240.4 120.6,240.7 123.4,241.0 126.2,241.6 129.0,240.8 131.8,239.9 134.6,240.1 137.4,240.4 140.2,240.6 143.0,240.9 145.8,241.1 148.6,241.3 151.4,240.6 154.2,241.1 156.9,241.4 159.7,239.8 162.5,240.0 165.3,239.6 168.1,240.0 170.9,240.2 173.7,240.5 176.5,240.7 179.3,241.0 182.1,240.2 184.9,240.4 187.7,240.7 190.5,240.9 193.2,241.3 196.0,241.5 198.8,240.8 201.6,241.0 204.4,241.2 207.2,241.4 210.0,241.6 212.8,241.7 215.6,241.9 218.4,242.0 221.2,241.3 224.0,241.4 226.8,242.3 229.5,242.5 232.3,242.6 235.1,242.8 237.9,243.2 240.7,243.3 243.5,243.4 246.3,243.6 249.1,243.9 251.9,244.0 254.7,244.2 257.5,244.3 260.3,244.6 263.1,244.1 265.8,243.5 268.6,243.8 271.4,243.1 274.2,243.3 277.0,243.4 279.8,243.5 282.6,242.7 285.4,242.8 288.2,243.0 291.0,242.5 293.8,243.2 296.6,243.3 299.4,243.4 302.2,243.6 304.9,243.7 307.7,244.1 310.5,244.2 313.3,244.3 316.1,243.7 318.9,243.9 321.7,244.0 324.5,244.1 327.3,244.1 330.1,244.2 332.9,244.4 335.7,244.5 338.5,244.6 341.2,244.6 344.0,244.7 346.8,245.0 349.6,245.1 352.4,245.0 355.2,245.1 358.0,245.1 360.8,245.2 363.6,245.3 366.4,245.4 369.2,245.4 372.0,245.5 374.8,245.7 377.5,245.1 380.3,244.9 383.1,245.0 385.9,245.0 388.7,245.2 391.5,245.3 394.3,245.0 397.1,245.1 399.9,245.2 402.7,245.4 405.5,244.9 408.3,245.0 411.1,245.1 413.8,245.1 416.6,245.2 419.4,245.7 422.2,245.6 425.0,245.7 427.8,245.7 430.6,245.5 433.4,245.5 436.2,245.6 439.0,245.7 441.8,245.7 444.6,245.8 447.4,246.0 450.2,246.1 452.9,246.2 455.7,246.2 458.5,246.2 461.3,246.3 464.1,246.3 466.9,246.2 469.7,246.5 472.5,246.1 475.3,246.0 478.1,246.1 480.9,245.8 483.7,246.1 486.5,246.3 489.2,246.9 492.0,247.0 494.8,247.2 497.6,247.3 500.4,247.7 503.2,247.8 506.0,247.9"/><line x1="356" y1="28" x2="382" y2="28" stroke="black" stroke-width="2"/><text x="388" y="32" font-size="12" font-family="Georgia,'Times New Roman',serif">right half (hot start)</text><line x1="356" y1="46" x2="382" y2="46" stroke="black" stroke-width="1.3" stroke-dasharray="7 4"/><text x="388" y="50" font-size="12" font-family="Georgia,'Times New Roman',serif">left half (cold start)</text><text x="284" y="290" text-anchor="middle" font-size="14" font-family="Georgia,'Times New Roman',serif">time t</text><text x="16" y="134" text-anchor="middle" font-size="14" font-family="Georgia,'Times New Roman',serif" transform="rotate(-90 16 134)">mean temperature T</text><text x="66" y="12" font-size="13" font-family="Georgia,'Times New Roman',serif">preset gas: left/right mean temperature</text></g><text x="6" y="16" font-size="14" font-weight="bold" font-family="Georgia,'Times New Roman',serif">(a)</text><g transform="translate(0,308)"><rect x="0" y="0" width="520" height="300" fill="white"/><line x1="62" y1="254" x2="506" y2="254" stroke="#ddd" stroke-width="0.6"/><line x1="62" y1="178.4073536526367" x2="506" y2="178.4073536526367" stroke="#ddd" stroke-width="0.6"/><line x1="62" y1="102.81470730527334" x2="506" y2="102.81470730527334" stroke="#ddd" stroke-width="0.6"/><line x1="62" y1="27.222060957909996" x2="506" y2="27.222060957909996" stroke="#ddd" stroke-width="0.6"/><rect x="62" y="14" width="444" height="240" fill="none" stroke="black" stroke-width="1"/><line x1="148.95579937304075" y1="254" x2="148.95579937304075" y2="258" stroke="black"/><text x="148.95579937304075" y="272" text-anchor="middle" font-size="12" font-family="Georgia,'Times New Roman',serif">50</text><line x1="235.94639498432605" y1="254" x2="235.94639498432605" y2="258" stroke="black"/><text x="235.94639498432605" y="272" text-anchor="middle" font-size="12" font-family="Georgia,'Times New Roman',serif">100</text><line x1="322.9369905956113" y1="254" x2="322.9369905956113" y2="258" stroke="black"/><text x="322.9369905956113" y="272" text-anchor="middle" font-size="12" font-family="Georgia,'Times New Roman',serif">150</text><line x1="409.92758620689654" y1="254" x2="409.92758620689654" y2="258" stroke="black"/><text x="409.92758620689654" y="272" text-anchor="middle" font-size="12" font-family="Georgia,'Times New Roman',serif">200</text><line x1="496.9181818181818" y1="254" x2="496.9181818181818" y2="258" stroke="black"/><text x="496.9181818181818" y="272" text-anchor="middle" font-size="12" font-family="Georgia,'Times New Roman',serif">250</text><line x1="58" y1="254" x2="62" y2="254" stroke="black"/><text x="55" y="258" text-anchor="end" font-size="12" font-family="Georgia,'Times New Roman',serif">0</text><line x1="58" y1="178.4073536526367" x2="62" y2="178.4073536526367" stroke="black"/><text x="55" y="182.4073536526367" text-anchor="end" font-size="12" font-family="Georgia,'Times New Roman',serif">50</text><line x1="58" y1="102.81470730527334" x2="62" y2="102.81470730527334" stroke="black"/><text x="55" y="106.81470730527334" text-anchor="end" font-size="12" font-family="Georgia,'Times New Roman',serif">100</text><line x1="58" y1="27.222060957909996" x2="62" y2="27.222060957909996" stroke="black"/><text x="55" y="31.222060957909996" text-anchor="end" font-size="12" font-family="Georgia,'Times New Roman',serif">150</text><polyline fill="none" stroke="black" stroke-width="2" points="62.0,201.9 63.4,201.8 64.8,201.5 66.2,201.0 67.6,200.3 69.0,199.4 70.4,198.3 71.7,197.0 73.1,195.6 74.5,193.9 75.9,192.0 77.3,190.0 78.7,187.9 80.1,185.6 81.5,183.3 82.9,180.8 84.3,178.3 85.7,175.7 87.1,173.0 88.4,170.3 89.8,167.6 91.2,164.8 92.6,161.9 94.0,159.1 95.4,156.1 96.8,153.2 98.2,150.2 99.6,147.3 101.0,144.3 102.4,141.3 103.8,138.3 105.1,135.3 106.5,132.3 107.9,129.3 109.3,126.4 110.7,123.5 112.1,120.6 113.5,117.8 114.9,115.1 116.3,112.4 117.7,109.7 119.1,107.1 120.5,104.4 121.8,101.8 123.2,99.2 124.6,96.8 126.0,94.3 127.4,91.8 128.8,89.4 130.2,87.0 131.6,84.6 133.0,82.3 134.4,80.0 135.8,77.6 137.2,75.3 138.6,73.1 139.9,70.9 141.3,68.7 142.7,66.7 144.1,64.6 145.5,62.6 146.9,60.6 148.3,58.9 149.7,57.1 151.1,55.5 152.5,53.8 153.9,52.3 155.3,50.8 156.6,49.3 158.0,47.8 159.4,46.3 160.8,44.8 162.2,43.3 163.6,41.9 165.0,40.6 166.4,39.4 167.8,38.2 169.2,37.2 170.6,36.2 172.0,35.3 173.3,34.6 174.7,33.9 176.1,33.3 177.5,32.6 178.9,32.1 180.3,31.6 181.7,31.1 183.1,30.6 184.5,30.2 185.9,29.8 187.3,29.6 188.7,29.3 190.1,29.0 191.4,28.7 192.8,28.5 194.2,28.2 195.6,28.0 197.0,27.8 198.4,27.7 199.8,27.7 201.2,27.6 202.6,27.6 204.0,27.6 205.4,27.6 206.8,27.6 208.1,27.6 209.5,27.7 210.9,27.9 212.3,28.1 213.7,28.2 215.1,28.4 216.5,28.6 217.9,28.8 219.3,29.1 220.7,29.3 222.1,29.5 223.5,29.8 224.8,30.1 226.2,30.4 227.6,30.7 229.0,31.0 230.4,31.3 231.8,31.7 233.2,32.0 234.6,32.4 236.0,32.8 237.4,33.2 238.8,33.7 240.2,34.1 241.5,34.7 242.9,35.2 244.3,35.7 245.7,36.2 247.1,36.7 248.5,37.2 249.9,37.7 251.3,38.2 252.7,38.7 254.1,39.2 255.5,39.6 256.9,40.1 258.3,40.5 259.6,41.0 261.0,41.4 262.4,41.8 263.8,42.2 265.2,42.7 266.6,43.1 268.0,43.5 269.4,44.0 270.8,44.4 272.2,44.8 273.6,45.2 275.0,45.6 276.3,45.9 277.7,46.3 279.1,46.7 280.5,47.0 281.9,47.4 283.3,47.7 284.7,48.0 286.1,48.4 287.5,48.7 288.9,49.0 290.3,49.4 291.7,49.7 293.0,50.0 294.4,50.4 295.8,50.7 297.2,51.0 298.6,51.3 300.0,51.5 301.4,51.8 302.8,52.0 304.2,52.3 305.6,52.5 307.0,52.7 308.4,52.9 309.7,53.2 311.1,53.4 312.5,53.6 313.9,53.8 315.3,53.9 316.7,54.1 318.1,54.2 319.5,54.3 320.9,54.5 322.3,54.7 323.7,54.8 325.1,55.0 326.5,55.2 327.8,55.3 329.2,55.5 330.6,55.6 332.0,55.7 333.4,55.8 334.8,55.9 336.2,56.0 337.6,56.1 339.0,56.2 340.4,56.2 341.8,56.3 343.2,56.4 344.5,56.5 345.9,56.6 347.3,56.6 348.7,56.7 350.1,56.7 351.5,56.8 352.9,56.8 354.3,56.9 355.7,56.9 357.1,56.9 358.5,56.9 359.9,56.9 361.2,56.9 362.6,56.9 364.0,56.9 365.4,57.0 366.8,57.0 368.2,57.0 369.6,57.0 371.0,57.0 372.4,57.0 373.8,57.0 375.2,56.9 376.6,56.9 377.9,56.9 379.3,56.8 380.7,56.8 382.1,56.7 383.5,56.7 384.9,56.6 386.3,56.6 387.7,56.5 389.1,56.4 390.5,56.3 391.9,56.3 393.3,56.2 394.7,56.1 396.0,56.0 397.4,55.9 398.8,55.8 400.2,55.7 401.6,55.6 403.0,55.5 404.4,55.4 405.8,55.3 407.2,55.2 408.6,55.0 410.0,54.9 411.4,54.7 412.7,54.6 414.1,54.4 415.5,54.2 416.9,54.1 418.3,53.9 419.7,53.8 421.1,53.6 422.5,53.5 423.9,53.3 425.3,53.1 426.7,52.9 428.1,52.8 429.4,52.6 430.8,52.3 432.2,52.1 433.6,51.9 435.0,51.6 436.4,51.4 437.8,51.1 439.2,50.9 440.6,50.6 442.0,50.3 443.4,50.0 444.8,49.7 446.2,49.4 447.5,49.2 448.9,48.9 450.3,48.7 451.7,48.5 453.1,48.3 454.5,48.1 455.9,47.9 457.3,47.7 458.7,47.5 460.1,47.3 461.5,47.1 462.9,46.9 464.2,46.7 465.6,46.5 467.0,46.3 468.4,46.2 469.8,46.0 471.2,45.8 472.6,45.7 474.0,45.5 475.4,45.3 476.8,45.1 478.2,44.9 479.6,44.7 480.9,44.5 482.3,44.3 483.7,44.1 485.1,43.9 486.5,43.7 487.9,43.5 489.3,43.3 490.7,43.1 492.1,42.9 493.5,42.7 494.9,42.5 496.3,42.3 497.6,42.1 499.0,41.9 500.4,41.8 501.8,41.6 503.2,41.4 504.6,41.2 506.0,40.9"/><line x1="74" y1="28" x2="100" y2="28" stroke="black" stroke-width="2"/><text x="106" y="32" font-size="12" font-family="Georgia,'Times New Roman',serif">hot core (90 particles)</text><text x="284" y="290" text-anchor="middle" font-size="14" font-family="Georgia,'Times New Roman',serif">time t</text><text x="16" y="134" text-anchor="middle" font-size="14" font-family="Georgia,'Times New Roman',serif" transform="rotate(-90 16 134)">mean core radius</text><text x="66" y="12" font-size="13" font-family="Georgia,'Times New Roman',serif">preset pressure: hot-core expansion</text></g><text x="6" y="324" font-size="14" font-weight="bold" font-family="Georgia,'Times New Roman',serif">(b)</text></svg>